<?xml version="1.0" standalone="no"?>
<!DOCTYPE svg PUBLIC "-//W3C//DTD SVG 20010904//EN"
 "http://www.w3.org/TR/2001/REC-SVG-20010904/DTD/svg10.dtd">
<svg version="1.0" xmlns="http://www.w3.org/2000/svg"
 width="226.000000pt" height="265.000000pt" viewBox="0 0 226.000000 265.000000"
 preserveAspectRatio="xMidYMid meet">

<g transform="translate(0.000000,265.000000) scale(0.100000,-0.100000)"
fill="#000000" stroke="none">
<path d="M1064 2621 c-100 -45 -133 -172 -68 -258 34 -45 73 -63 136 -63 109
1 172 67 166 175 -4 74 -33 119 -92 146 -52 23 -90 23 -142 0z m128 -90 c27
-24 33 -36 33 -71 0 -84 -95 -121 -156 -61 -46 47 -38 115 19 145 41 23 68 19
104 -13z"/>
<path d="M444 2276 c-29 -13 -235 -259 -242 -289 -1 -7 48 -75 109 -152 61
-77 154 -195 206 -262 53 -68 99 -123 103 -123 8 0 160 194 160 205 0 3 -40
58 -90 122 -49 63 -90 122 -90 130 0 29 30 71 55 77 38 10 58 -5 141 -110 42
-52 80 -93 85 -92 13 5 159 192 159 203 0 14 -151 209 -201 260 l-39 40 -163
2 c-121 2 -170 -1 -193 -11z"/>
<path d="M1465 2272 c-27 -17 -89 -93 -465 -572 -58 -74 -147 -187 -198 -251
-51 -64 -92 -120 -92 -124 0 -3 27 -42 60 -85 65 -86 94 -103 133 -77 12 8
105 120 207 248 393 499 444 561 469 570 30 12 71 -14 85 -54 11 -29 2 -43
-104 -180 -33 -43 -60 -87 -60 -97 0 -10 34 -62 76 -115 63 -79 79 -94 89 -83
7 7 81 101 166 208 84 107 175 223 201 257 l49 63 -109 143 c-61 78 -122 148
-136 155 -18 8 -83 12 -184 12 -135 0 -161 -3 -187 -18z"/>
<path d="M115 1482 c-95 -45 -131 -142 -86 -230 50 -98 160 -128 252 -67 94
62 92 217 -5 283 -46 32 -111 37 -161 14z m143 -97 c64 -74 -18 -182 -109
-145 -31 13 -59 55 -59 87 2 82 113 120 168 58z"/>
<path d="M1359 1490 c-9 -5 -101 -119 -205 -252 -103 -134 -235 -304 -293
-378 -57 -74 -118 -150 -135 -167 -35 -39 -76 -43 -106 -13 -36 36 -26 69 55
173 89 114 99 134 79 171 -24 48 -128 176 -141 173 -6 -1 -65 -70 -130 -153
-65 -83 -158 -202 -207 -264 -82 -103 -88 -114 -76 -134 7 -11 60 -81 118
-153 l105 -133 189 0 188 0 107 137 c142 180 299 380 458 583 71 91 144 183
161 205 l33 41 -64 80 c-73 94 -96 108 -136 84z"/>
<path d="M1989 1467 c-75 -50 -101 -143 -63 -224 41 -86 153 -119 238 -69 151
89 87 315 -90 316 -37 0 -61 -6 -85 -23z m159 -82 c47 -55 14 -140 -59 -151
-31 -5 -42 -1 -70 24 -26 23 -33 37 -33 67 0 30 7 44 33 67 28 25 39 29 70 24
21 -3 45 -16 59 -31z"/>
<path d="M1590 1137 c-30 -39 -67 -87 -82 -106 l-26 -36 94 -120 c109 -140
118 -177 53 -210 -42 -22 -65 -6 -150 105 -40 55 -78 98 -84 96 -11 -3 -98
-107 -141 -168 l-26 -37 119 -150 118 -151 190 1 190 0 89 114 c48 63 101 131
116 152 l29 39 -67 85 c-301 382 -354 449 -360 453 -4 2 -32 -28 -62 -67z"/>
<path d="M1050 332 c-101 -50 -116 -188 -31 -273 81 -81 230 -51 270 54 58
151 -95 292 -239 219z m153 -92 c31 -34 34 -58 12 -100 -30 -59 -98 -68 -146
-21 -46 47 -38 114 19 146 37 21 81 11 115 -25z"/>
</g>
</svg>
